<mxfile host="65bd71144e" modified="2023-02-27T16:44:46.868Z" agent="5.0 (Macintosh; Intel Mac OS X 12_4_0) AppleWebKit/537.36 (KHTML, like Gecko) Code/1.74.0 Chrome/102.0.5005.167 Electron/19.1.8 Safari/537.36" etag="NqJ4GV8G5w4zp-jhnHk4" version="20.8.23" type="embed">
    <diagram id="0TOOUfYCe-SgW7BdlaWr" name="Page-1">
        <mxGraphModel dx="1054" dy="809" grid="1" gridSize="10" guides="1" tooltips="1" connect="1" arrows="1" fold="1" page="0" pageScale="1" pageWidth="827" pageHeight="1169" math="0" shadow="0">
            <root>
                <mxCell id="0"/>
                <mxCell id="1" parent="0"/>
                <mxCell id="29" value="Access Control" style="swimlane;fontStyle=0;align=center;verticalAlign=top;childLayout=stackLayout;horizontal=1;startSize=30;horizontalStack=0;resizeParent=1;resizeParentMax=0;resizeLast=0;collapsible=0;marginBottom=0;html=1;" parent="1" vertex="1">
                    <mxGeometry x="160" y="290" width="470" height="474" as="geometry"/>
                </mxCell>
                <mxCell id="30" value="Variables" style="text;html=1;strokeColor=none;fillColor=none;align=center;verticalAlign=middle;spacingLeft=4;spacingRight=4;overflow=hidden;rotatable=0;points=[[0,0.5],[1,0.5]];portConstraint=eastwest;" parent="29" vertex="1">
                    <mxGeometry y="30" width="470" height="20" as="geometry"/>
                </mxCell>
                <mxCell id="31" value="DEFAULT_ADMIN_ROLE(bytes32)" style="text;html=1;strokeColor=none;fillColor=none;align=left;verticalAlign=middle;spacingLeft=4;spacingRight=4;overflow=hidden;rotatable=0;points=[[0,0.5],[1,0.5]];portConstraint=eastwest;" parent="29" vertex="1">
                    <mxGeometry y="50" width="470" height="20" as="geometry"/>
                </mxCell>
                <mxCell id="34" value="" style="line;strokeWidth=1;fillColor=none;align=left;verticalAlign=middle;spacingTop=-1;spacingLeft=3;spacingRight=3;rotatable=0;labelPosition=right;points=[];portConstraint=eastwest;" parent="29" vertex="1">
                    <mxGeometry y="70" width="470" height="8" as="geometry"/>
                </mxCell>
                <mxCell id="35" value="Modifiers" style="text;html=1;strokeColor=none;fillColor=none;align=center;verticalAlign=middle;spacingLeft=4;spacingRight=4;overflow=hidden;rotatable=0;points=[[0,0.5],[1,0.5]];portConstraint=eastwest;" parent="29" vertex="1">
                    <mxGeometry y="78" width="470" height="20" as="geometry"/>
                </mxCell>
                <mxCell id="36" value="onlyRole(bytes32 role)" style="text;html=1;strokeColor=none;fillColor=none;align=left;verticalAlign=middle;spacingLeft=4;spacingRight=4;overflow=hidden;rotatable=0;points=[[0,0.5],[1,0.5]];portConstraint=eastwest;" parent="29" vertex="1">
                    <mxGeometry y="98" width="470" height="20" as="geometry"/>
                </mxCell>
                <mxCell id="44" value="" style="line;strokeWidth=1;fillColor=none;align=left;verticalAlign=middle;spacingTop=-1;spacingLeft=3;spacingRight=3;rotatable=0;labelPosition=right;points=[];portConstraint=eastwest;" parent="29" vertex="1">
                    <mxGeometry y="118" width="470" height="8" as="geometry"/>
                </mxCell>
                <mxCell id="45" value="Function" style="text;html=1;strokeColor=none;fillColor=none;align=center;verticalAlign=middle;spacingLeft=4;spacingRight=4;overflow=hidden;rotatable=0;points=[[0,0.5],[1,0.5]];portConstraint=eastwest;" parent="29" vertex="1">
                    <mxGeometry y="126" width="470" height="20" as="geometry"/>
                </mxCell>
                <mxCell id="46" value="supportsInterface(bytes4 interfaceId) --&amp;gt; bool" style="text;html=1;strokeColor=none;fillColor=none;align=left;verticalAlign=middle;spacingLeft=4;spacingRight=4;overflow=hidden;rotatable=0;points=[[0,0.5],[1,0.5]];portConstraint=eastwest;" parent="29" vertex="1">
                    <mxGeometry y="146" width="470" height="20" as="geometry"/>
                </mxCell>
                <mxCell id="47" value="hasRole(bytes32 role, address account) --&amp;gt; bool" style="text;html=1;strokeColor=none;fillColor=none;align=left;verticalAlign=middle;spacingLeft=4;spacingRight=4;overflow=hidden;rotatable=0;points=[[0,0.5],[1,0.5]];portConstraint=eastwest;" parent="29" vertex="1">
                    <mxGeometry y="166" width="470" height="20" as="geometry"/>
                </mxCell>
                <mxCell id="48" value="_checkRole(bytes32 role)" style="text;html=1;strokeColor=none;fillColor=none;align=left;verticalAlign=middle;spacingLeft=4;spacingRight=4;overflow=hidden;rotatable=0;points=[[0,0.5],[1,0.5]];portConstraint=eastwest;" parent="29" vertex="1">
                    <mxGeometry y="186" width="470" height="20" as="geometry"/>
                </mxCell>
                <mxCell id="65" value="_checkRole(bytes32 role, address account)" style="text;html=1;strokeColor=none;fillColor=none;align=left;verticalAlign=middle;spacingLeft=4;spacingRight=4;overflow=hidden;rotatable=0;points=[[0,0.5],[1,0.5]];portConstraint=eastwest;" parent="29" vertex="1">
                    <mxGeometry y="206" width="470" height="20" as="geometry"/>
                </mxCell>
                <mxCell id="64" value="getRoleAdmin(bytes32 role) --&amp;gt; bytes32" style="text;html=1;strokeColor=none;fillColor=none;align=left;verticalAlign=middle;spacingLeft=4;spacingRight=4;overflow=hidden;rotatable=0;points=[[0,0.5],[1,0.5]];portConstraint=eastwest;" parent="29" vertex="1">
                    <mxGeometry y="226" width="470" height="20" as="geometry"/>
                </mxCell>
                <mxCell id="63" value="grantRole(bytes32 role, address account) --&amp;gt; Emit RoleGranted event" style="text;html=1;strokeColor=none;fillColor=none;align=left;verticalAlign=middle;spacingLeft=4;spacingRight=4;overflow=hidden;rotatable=0;points=[[0,0.5],[1,0.5]];portConstraint=eastwest;" parent="29" vertex="1">
                    <mxGeometry y="246" width="470" height="20" as="geometry"/>
                </mxCell>
                <mxCell id="62" value="revokeRole(bytes32 role, address account) --&amp;gt; Emit RoleRevoked event" style="text;html=1;strokeColor=none;fillColor=none;align=left;verticalAlign=middle;spacingLeft=4;spacingRight=4;overflow=hidden;rotatable=0;points=[[0,0.5],[1,0.5]];portConstraint=eastwest;" parent="29" vertex="1">
                    <mxGeometry y="266" width="470" height="20" as="geometry"/>
                </mxCell>
                <mxCell id="61" value="renounceRole(bytes32 role, address account) --&amp;gt; Emit RoleRevoled event" style="text;html=1;strokeColor=none;fillColor=none;align=left;verticalAlign=middle;spacingLeft=4;spacingRight=4;overflow=hidden;rotatable=0;points=[[0,0.5],[1,0.5]];portConstraint=eastwest;" parent="29" vertex="1">
                    <mxGeometry y="286" width="470" height="20" as="geometry"/>
                </mxCell>
                <mxCell id="60" value="_setupRole(bytes32 role, address account) --&amp;gt; Emit RoleGranted event" style="text;html=1;strokeColor=none;fillColor=none;align=left;verticalAlign=middle;spacingLeft=4;spacingRight=4;overflow=hidden;rotatable=0;points=[[0,0.5],[1,0.5]];portConstraint=eastwest;" parent="29" vertex="1">
                    <mxGeometry y="306" width="470" height="20" as="geometry"/>
                </mxCell>
                <mxCell id="68" value="_setRoleAdmin(bytes32 role, bytes32 adminRole) --&amp;gt; Emit RoleAdminChanged event" style="text;html=1;strokeColor=none;fillColor=none;align=left;verticalAlign=middle;spacingLeft=4;spacingRight=4;overflow=hidden;rotatable=0;points=[[0,0.5],[1,0.5]];portConstraint=eastwest;" parent="29" vertex="1">
                    <mxGeometry y="326" width="470" height="20" as="geometry"/>
                </mxCell>
                <mxCell id="67" value="_grantRole(bytes32 role. address account) --&amp;gt; Emit RoleGranted event" style="text;html=1;strokeColor=none;fillColor=none;align=left;verticalAlign=middle;spacingLeft=4;spacingRight=4;overflow=hidden;rotatable=0;points=[[0,0.5],[1,0.5]];portConstraint=eastwest;" parent="29" vertex="1">
                    <mxGeometry y="346" width="470" height="20" as="geometry"/>
                </mxCell>
                <mxCell id="66" value="_revokeRole(bytes32 role. address account) --&amp;gt; Emit RoleRevoked event" style="text;html=1;strokeColor=none;fillColor=none;align=left;verticalAlign=middle;spacingLeft=4;spacingRight=4;overflow=hidden;rotatable=0;points=[[0,0.5],[1,0.5]];portConstraint=eastwest;" parent="29" vertex="1">
                    <mxGeometry y="366" width="470" height="20" as="geometry"/>
                </mxCell>
                <mxCell id="55" value="" style="line;strokeWidth=1;fillColor=none;align=left;verticalAlign=middle;spacingTop=-1;spacingLeft=3;spacingRight=3;rotatable=0;labelPosition=right;points=[];portConstraint=eastwest;" parent="29" vertex="1">
                    <mxGeometry y="386" width="470" height="8" as="geometry"/>
                </mxCell>
                <mxCell id="56" value="Events" style="text;html=1;strokeColor=none;fillColor=none;align=center;verticalAlign=middle;spacingLeft=4;spacingRight=4;overflow=hidden;rotatable=0;points=[[0,0.5],[1,0.5]];portConstraint=eastwest;" parent="29" vertex="1">
                    <mxGeometry y="394" width="470" height="20" as="geometry"/>
                </mxCell>
                <mxCell id="57" value="RoleAdminChanged(role, previousAdminRole, newAdminRole)" style="text;html=1;strokeColor=none;fillColor=none;align=left;verticalAlign=middle;spacingLeft=4;spacingRight=4;overflow=hidden;rotatable=0;points=[[0,0.5],[1,0.5]];portConstraint=eastwest;" parent="29" vertex="1">
                    <mxGeometry y="414" width="470" height="20" as="geometry"/>
                </mxCell>
                <mxCell id="58" value="RoleGranted(role, account, sender)" style="text;html=1;strokeColor=none;fillColor=none;align=left;verticalAlign=middle;spacingLeft=4;spacingRight=4;overflow=hidden;rotatable=0;points=[[0,0.5],[1,0.5]];portConstraint=eastwest;" parent="29" vertex="1">
                    <mxGeometry y="434" width="470" height="20" as="geometry"/>
                </mxCell>
                <mxCell id="59" value="RoleRevoked(role. account, sender)" style="text;html=1;strokeColor=none;fillColor=none;align=left;verticalAlign=middle;spacingLeft=4;spacingRight=4;overflow=hidden;rotatable=0;points=[[0,0.5],[1,0.5]];portConstraint=eastwest;" parent="29" vertex="1">
                    <mxGeometry y="454" width="470" height="20" as="geometry"/>
                </mxCell>
                <mxCell id="69" value="ERC721Burnable" style="swimlane;fontStyle=0;align=center;verticalAlign=top;childLayout=stackLayout;horizontal=1;startSize=30;horizontalStack=0;resizeParent=1;resizeParentMax=0;resizeLast=0;collapsible=0;marginBottom=0;html=1;" parent="1" vertex="1">
                    <mxGeometry x="710" y="1340" width="590" height="70" as="geometry"/>
                </mxCell>
                <mxCell id="76" value="Function" style="text;html=1;strokeColor=none;fillColor=none;align=center;verticalAlign=middle;spacingLeft=4;spacingRight=4;overflow=hidden;rotatable=0;points=[[0,0.5],[1,0.5]];portConstraint=eastwest;" parent="69" vertex="1">
                    <mxGeometry y="30" width="590" height="20" as="geometry"/>
                </mxCell>
                <mxCell id="77" value="burn(tokenId)" style="text;html=1;strokeColor=none;fillColor=none;align=left;verticalAlign=middle;spacingLeft=4;spacingRight=4;overflow=hidden;rotatable=0;points=[[0,0.5],[1,0.5]];portConstraint=eastwest;" parent="69" vertex="1">
                    <mxGeometry y="50" width="590" height="20" as="geometry"/>
                </mxCell>
                <mxCell id="95" value="ERC721Enumerabel" style="swimlane;fontStyle=0;align=center;verticalAlign=top;childLayout=stackLayout;horizontal=1;startSize=30;horizontalStack=0;resizeParent=1;resizeParentMax=0;resizeLast=0;collapsible=0;marginBottom=0;html=1;" parent="1" vertex="1">
                    <mxGeometry x="710" y="1020" width="590" height="150" as="geometry"/>
                </mxCell>
                <mxCell id="96" value="Function" style="text;html=1;strokeColor=none;fillColor=none;align=center;verticalAlign=middle;spacingLeft=4;spacingRight=4;overflow=hidden;rotatable=0;points=[[0,0.5],[1,0.5]];portConstraint=eastwest;" parent="95" vertex="1">
                    <mxGeometry y="30" width="590" height="20" as="geometry"/>
                </mxCell>
                <mxCell id="97" value="supportsInterface(bytes4 interfaceId) --&amp;gt; bool" style="text;html=1;strokeColor=none;fillColor=none;align=left;verticalAlign=middle;spacingLeft=4;spacingRight=4;overflow=hidden;rotatable=0;points=[[0,0.5],[1,0.5]];portConstraint=eastwest;" parent="95" vertex="1">
                    <mxGeometry y="50" width="590" height="20" as="geometry"/>
                </mxCell>
                <mxCell id="98" value="totalSupply() --&amp;gt; uint256" style="text;html=1;strokeColor=none;fillColor=none;align=left;verticalAlign=middle;spacingLeft=4;spacingRight=4;overflow=hidden;rotatable=0;points=[[0,0.5],[1,0.5]];portConstraint=eastwest;" parent="95" vertex="1">
                    <mxGeometry y="70" width="590" height="20" as="geometry"/>
                </mxCell>
                <mxCell id="99" value="tokenOfOwnerByIndex(address owner, uint 256 index) --&amp;gt; uint 256" style="text;html=1;strokeColor=none;fillColor=none;align=left;verticalAlign=middle;spacingLeft=4;spacingRight=4;overflow=hidden;rotatable=0;points=[[0,0.5],[1,0.5]];portConstraint=eastwest;" parent="95" vertex="1">
                    <mxGeometry y="90" width="590" height="20" as="geometry"/>
                </mxCell>
                <mxCell id="100" value="tokenByIndex(uint256 index) --&amp;gt; uint 256" style="text;html=1;strokeColor=none;fillColor=none;align=left;verticalAlign=middle;spacingLeft=4;spacingRight=4;overflow=hidden;rotatable=0;points=[[0,0.5],[1,0.5]];portConstraint=eastwest;" parent="95" vertex="1">
                    <mxGeometry y="110" width="590" height="20" as="geometry"/>
                </mxCell>
                <mxCell id="101" value="_beforeTokenTransfer(address from, adress to, uint256, uint256 batchSize)" style="text;html=1;strokeColor=none;fillColor=none;align=left;verticalAlign=middle;spacingLeft=4;spacingRight=4;overflow=hidden;rotatable=0;points=[[0,0.5],[1,0.5]];portConstraint=eastwest;" parent="95" vertex="1">
                    <mxGeometry y="130" width="590" height="20" as="geometry"/>
                </mxCell>
                <mxCell id="102" value="ERC721" style="swimlane;fontStyle=0;align=center;verticalAlign=top;childLayout=stackLayout;horizontal=1;startSize=30;horizontalStack=0;resizeParent=1;resizeParentMax=0;resizeLast=0;collapsible=0;marginBottom=0;html=1;" parent="1" vertex="1">
                    <mxGeometry x="710" y="290" width="590" height="698" as="geometry"/>
                </mxCell>
                <mxCell id="109" value="Function" style="text;html=1;strokeColor=none;fillColor=none;align=center;verticalAlign=middle;spacingLeft=4;spacingRight=4;overflow=hidden;rotatable=0;points=[[0,0.5],[1,0.5]];portConstraint=eastwest;" parent="102" vertex="1">
                    <mxGeometry y="30" width="590" height="20" as="geometry"/>
                </mxCell>
                <mxCell id="139" value="constructor(string name_, string symbol_)" style="text;html=1;strokeColor=none;fillColor=none;align=left;verticalAlign=middle;spacingLeft=4;spacingRight=4;overflow=hidden;rotatable=0;points=[[0,0.5],[1,0.5]];portConstraint=eastwest;" parent="102" vertex="1">
                    <mxGeometry y="50" width="590" height="20" as="geometry"/>
                </mxCell>
                <mxCell id="140" value="supportsInterface(bytes4 interfaceId) --&amp;gt; bool" style="text;html=1;strokeColor=none;fillColor=none;align=left;verticalAlign=middle;spacingLeft=4;spacingRight=4;overflow=hidden;rotatable=0;points=[[0,0.5],[1,0.5]];portConstraint=eastwest;" parent="102" vertex="1">
                    <mxGeometry y="70" width="590" height="20" as="geometry"/>
                </mxCell>
                <mxCell id="110" value="balanceOf(address owner) --&amp;gt; uint256 balance" style="text;html=1;strokeColor=none;fillColor=none;align=left;verticalAlign=middle;spacingLeft=4;spacingRight=4;overflow=hidden;rotatable=0;points=[[0,0.5],[1,0.5]];portConstraint=eastwest;" parent="102" vertex="1">
                    <mxGeometry y="90" width="590" height="20" as="geometry"/>
                </mxCell>
                <mxCell id="138" value="ownerOf(uint256 tokenid) --&amp;gt; address owner" style="text;html=1;strokeColor=none;fillColor=none;align=left;verticalAlign=middle;spacingLeft=4;spacingRight=4;overflow=hidden;rotatable=0;points=[[0,0.5],[1,0.5]];portConstraint=eastwest;" parent="102" vertex="1">
                    <mxGeometry y="110" width="590" height="20" as="geometry"/>
                </mxCell>
                <mxCell id="141" value="name() --&amp;gt; string" style="text;html=1;strokeColor=none;fillColor=none;align=left;verticalAlign=middle;spacingLeft=4;spacingRight=4;overflow=hidden;rotatable=0;points=[[0,0.5],[1,0.5]];portConstraint=eastwest;" parent="102" vertex="1">
                    <mxGeometry y="130" width="590" height="20" as="geometry"/>
                </mxCell>
                <mxCell id="142" value="symbol() --&amp;gt; string" style="text;html=1;strokeColor=none;fillColor=none;align=left;verticalAlign=middle;spacingLeft=4;spacingRight=4;overflow=hidden;rotatable=0;points=[[0,0.5],[1,0.5]];portConstraint=eastwest;" parent="102" vertex="1">
                    <mxGeometry y="150" width="590" height="20" as="geometry"/>
                </mxCell>
                <mxCell id="143" value="tokenURI(uint 256 tokenId) --&amp;gt; string" style="text;html=1;strokeColor=none;fillColor=none;align=left;verticalAlign=middle;spacingLeft=4;spacingRight=4;overflow=hidden;rotatable=0;points=[[0,0.5],[1,0.5]];portConstraint=eastwest;" parent="102" vertex="1">
                    <mxGeometry y="170" width="590" height="20" as="geometry"/>
                </mxCell>
                <mxCell id="137" value="safeTransferFrom(address from, address to, uint256 tokenId, bytes data) --&amp;gt; Emits Transfer event" style="text;html=1;strokeColor=none;fillColor=none;align=left;verticalAlign=middle;spacingLeft=4;spacingRight=4;overflow=hidden;rotatable=0;points=[[0,0.5],[1,0.5]];portConstraint=eastwest;" parent="102" vertex="1">
                    <mxGeometry y="190" width="590" height="20" as="geometry"/>
                </mxCell>
                <mxCell id="136" value="safeTransferFrom(address from, address to, uint256 tokenId) --&amp;gt; Emits Transfer event" style="text;html=1;strokeColor=none;fillColor=none;align=left;verticalAlign=middle;spacingLeft=4;spacingRight=4;overflow=hidden;rotatable=0;points=[[0,0.5],[1,0.5]];portConstraint=eastwest;" parent="102" vertex="1">
                    <mxGeometry y="210" width="590" height="20" as="geometry"/>
                </mxCell>
                <mxCell id="135" value="transferFrom(address from, address to, uint256 tokenId) --&amp;gt; Emits Transfer event" style="text;html=1;strokeColor=none;fillColor=none;align=left;verticalAlign=middle;spacingLeft=4;spacingRight=4;overflow=hidden;rotatable=0;points=[[0,0.5],[1,0.5]];portConstraint=eastwest;" parent="102" vertex="1">
                    <mxGeometry y="230" width="590" height="20" as="geometry"/>
                </mxCell>
                <mxCell id="134" value="approve(address to, uint256 tokenId) --&amp;gt; Emits Approval event" style="text;html=1;strokeColor=none;fillColor=none;align=left;verticalAlign=middle;spacingLeft=4;spacingRight=4;overflow=hidden;rotatable=0;points=[[0,0.5],[1,0.5]];portConstraint=eastwest;" parent="102" vertex="1">
                    <mxGeometry y="250" width="590" height="20" as="geometry"/>
                </mxCell>
                <mxCell id="133" value="setApprovalForAll(address operator, bool _approved) Emits ApprovalForAll event" style="text;html=1;strokeColor=none;fillColor=none;align=left;verticalAlign=middle;spacingLeft=4;spacingRight=4;overflow=hidden;rotatable=0;points=[[0,0.5],[1,0.5]];portConstraint=eastwest;" parent="102" vertex="1">
                    <mxGeometry y="270" width="590" height="20" as="geometry"/>
                </mxCell>
                <mxCell id="132" value="getApproved(uint256 tokenId) --&amp;gt; address operator" style="text;html=1;strokeColor=none;fillColor=none;align=left;verticalAlign=middle;spacingLeft=4;spacingRight=4;overflow=hidden;rotatable=0;points=[[0,0.5],[1,0.5]];portConstraint=eastwest;" parent="102" vertex="1">
                    <mxGeometry y="290" width="590" height="20" as="geometry"/>
                </mxCell>
                <mxCell id="131" value="isApprovedForAll(address owner, address operator) --&amp;gt; bool" style="text;html=1;strokeColor=none;fillColor=none;align=left;verticalAlign=middle;spacingLeft=4;spacingRight=4;overflow=hidden;rotatable=0;points=[[0,0.5],[1,0.5]];portConstraint=eastwest;" parent="102" vertex="1">
                    <mxGeometry y="310" width="590" height="20" as="geometry"/>
                </mxCell>
                <mxCell id="129" value="&lt;span style=&quot;color: rgb(255, 255, 255); background-color: transparent; font-family: var(--monospace); font-size: 0.95em; font-weight: var(--weight-normal); caret-color: rgb(40, 40, 70);&quot;&gt;_safeTransfer&lt;/span&gt;&lt;span style=&quot;color: rgb(255, 255, 255); background-color: transparent; font-family: var(--monospace); font-size: 0.95em; font-weight: var(--weight-normal); caret-color: rgb(40, 40, 70);&quot;&gt;(address from, address to, uint256 tokenId, bytes data) --&amp;gt; Emits Transfer event&lt;/span&gt;" style="text;html=1;strokeColor=none;fillColor=none;align=left;verticalAlign=middle;spacingLeft=4;spacingRight=4;overflow=hidden;rotatable=0;points=[[0,0.5],[1,0.5]];portConstraint=eastwest;" parent="102" vertex="1">
                    <mxGeometry y="330" width="590" height="20" as="geometry"/>
                </mxCell>
                <mxCell id="128" value="_ownerOf(uint256 tokenId) --&amp;gt; address" style="text;html=1;strokeColor=none;fillColor=none;align=left;verticalAlign=middle;spacingLeft=4;spacingRight=4;overflow=hidden;rotatable=0;points=[[0,0.5],[1,0.5]];portConstraint=eastwest;" parent="102" vertex="1">
                    <mxGeometry y="350" width="590" height="20" as="geometry"/>
                </mxCell>
                <mxCell id="127" value="_exists(uint256 tokenId) --&amp;gt; address" style="text;html=1;strokeColor=none;fillColor=none;align=left;verticalAlign=middle;spacingLeft=4;spacingRight=4;overflow=hidden;rotatable=0;points=[[0,0.5],[1,0.5]];portConstraint=eastwest;" parent="102" vertex="1">
                    <mxGeometry y="370" width="590" height="20" as="geometry"/>
                </mxCell>
                <mxCell id="149" value="_isApprovedOrOwner(address spender, uint256 tokenId) --&amp;gt; bool" style="text;html=1;strokeColor=none;fillColor=none;align=left;verticalAlign=middle;spacingLeft=4;spacingRight=4;overflow=hidden;rotatable=0;points=[[0,0.5],[1,0.5]];portConstraint=eastwest;" parent="102" vertex="1">
                    <mxGeometry y="390" width="590" height="20" as="geometry"/>
                </mxCell>
                <mxCell id="148" value="_safeMint(address to, uint256 tokenId) --&amp;gt; Emits Transfer event" style="text;html=1;strokeColor=none;fillColor=none;align=left;verticalAlign=middle;spacingLeft=4;spacingRight=4;overflow=hidden;rotatable=0;points=[[0,0.5],[1,0.5]];portConstraint=eastwest;" parent="102" vertex="1">
                    <mxGeometry y="410" width="590" height="20" as="geometry"/>
                </mxCell>
                <mxCell id="147" value="_safeMint(address to, uint256 tokenId, bytes data) --&amp;gt; Emits Transfer event" style="text;html=1;strokeColor=none;fillColor=none;align=left;verticalAlign=middle;spacingLeft=4;spacingRight=4;overflow=hidden;rotatable=0;points=[[0,0.5],[1,0.5]];portConstraint=eastwest;" parent="102" vertex="1">
                    <mxGeometry y="430" width="590" height="20" as="geometry"/>
                </mxCell>
                <mxCell id="146" value="_mint(address to, uint256 tokenId) --&amp;gt; Emits Transfer event" style="text;html=1;strokeColor=none;fillColor=none;align=left;verticalAlign=middle;spacingLeft=4;spacingRight=4;overflow=hidden;rotatable=0;points=[[0,0.5],[1,0.5]];portConstraint=eastwest;" parent="102" vertex="1">
                    <mxGeometry y="450" width="590" height="20" as="geometry"/>
                </mxCell>
                <mxCell id="152" value="_burn(uint 256 tokenId) --&amp;gt; Emits Transfer event" style="text;html=1;strokeColor=none;fillColor=none;align=left;verticalAlign=middle;spacingLeft=4;spacingRight=4;overflow=hidden;rotatable=0;points=[[0,0.5],[1,0.5]];portConstraint=eastwest;" parent="102" vertex="1">
                    <mxGeometry y="470" width="590" height="20" as="geometry"/>
                </mxCell>
                <mxCell id="151" value="_transfer(address from, address to, uint256 tokenId) --&amp;gt; Emits Transfer event" style="text;html=1;strokeColor=none;fillColor=none;align=left;verticalAlign=middle;spacingLeft=4;spacingRight=4;overflow=hidden;rotatable=0;points=[[0,0.5],[1,0.5]];portConstraint=eastwest;" parent="102" vertex="1">
                    <mxGeometry y="490" width="590" height="20" as="geometry"/>
                </mxCell>
                <mxCell id="150" value="_approve(address to, uint256 tokenId) --&amp;gt;&amp;nbsp; Emit Approval event" style="text;html=1;strokeColor=none;fillColor=none;align=left;verticalAlign=middle;spacingLeft=4;spacingRight=4;overflow=hidden;rotatable=0;points=[[0,0.5],[1,0.5]];portConstraint=eastwest;" parent="102" vertex="1">
                    <mxGeometry y="510" width="590" height="20" as="geometry"/>
                </mxCell>
                <mxCell id="145" value="_setApprovalForAll(address owner, address operator, bool approved) --&amp;gt; Emits ApprovalForAll event" style="text;html=1;strokeColor=none;fillColor=none;align=left;verticalAlign=middle;spacingLeft=4;spacingRight=4;overflow=hidden;rotatable=0;points=[[0,0.5],[1,0.5]];portConstraint=eastwest;" parent="102" vertex="1">
                    <mxGeometry y="530" width="590" height="20" as="geometry"/>
                </mxCell>
                <mxCell id="157" value="_requireMinted(uint256 tokenId)" style="text;html=1;strokeColor=none;fillColor=none;align=left;verticalAlign=middle;spacingLeft=4;spacingRight=4;overflow=hidden;rotatable=0;points=[[0,0.5],[1,0.5]];portConstraint=eastwest;" vertex="1" parent="102">
                    <mxGeometry y="550" width="590" height="20" as="geometry"/>
                </mxCell>
                <mxCell id="156" value="_beforeTokenTransfer(address from, address to, uint256, uint256 batchsize)" style="text;html=1;strokeColor=none;fillColor=none;align=left;verticalAlign=middle;spacingLeft=4;spacingRight=4;overflow=hidden;rotatable=0;points=[[0,0.5],[1,0.5]];portConstraint=eastwest;" vertex="1" parent="102">
                    <mxGeometry y="570" width="590" height="20" as="geometry"/>
                </mxCell>
                <mxCell id="155" value="_afterTokenTransfer(address from, address to, uint256 firstTokenId, uint256 batchSize)" style="text;html=1;strokeColor=none;fillColor=none;align=left;verticalAlign=middle;spacingLeft=4;spacingRight=4;overflow=hidden;rotatable=0;points=[[0,0.5],[1,0.5]];portConstraint=eastwest;" vertex="1" parent="102">
                    <mxGeometry y="590" width="590" height="20" as="geometry"/>
                </mxCell>
                <mxCell id="122" value="" style="line;strokeWidth=1;fillColor=none;align=left;verticalAlign=middle;spacingTop=-1;spacingLeft=3;spacingRight=3;rotatable=0;labelPosition=right;points=[];portConstraint=eastwest;" parent="102" vertex="1">
                    <mxGeometry y="610" width="590" height="8" as="geometry"/>
                </mxCell>
                <mxCell id="123" value="Events" style="text;html=1;strokeColor=none;fillColor=none;align=center;verticalAlign=middle;spacingLeft=4;spacingRight=4;overflow=hidden;rotatable=0;points=[[0,0.5],[1,0.5]];portConstraint=eastwest;" parent="102" vertex="1">
                    <mxGeometry y="618" width="590" height="20" as="geometry"/>
                </mxCell>
                <mxCell id="124" value="Transfer(address indexed from, address indexed to, uint256 indexed tokenId)" style="text;html=1;strokeColor=none;fillColor=none;align=left;verticalAlign=middle;spacingLeft=4;spacingRight=4;overflow=hidden;rotatable=0;points=[[0,0.5],[1,0.5]];portConstraint=eastwest;" parent="102" vertex="1">
                    <mxGeometry y="638" width="590" height="20" as="geometry"/>
                </mxCell>
                <mxCell id="125" value="Approval(address indexed owner, address indexed approved, uint256 indexed tokenId)" style="text;html=1;strokeColor=none;fillColor=none;align=left;verticalAlign=middle;spacingLeft=4;spacingRight=4;overflow=hidden;rotatable=0;points=[[0,0.5],[1,0.5]];portConstraint=eastwest;" parent="102" vertex="1">
                    <mxGeometry y="658" width="590" height="20" as="geometry"/>
                </mxCell>
                <mxCell id="126" value="ApprovalForAll(address indexed owner, address indexed operator, bool approved)" style="text;html=1;strokeColor=none;fillColor=none;align=left;verticalAlign=middle;spacingLeft=4;spacingRight=4;overflow=hidden;rotatable=0;points=[[0,0.5],[1,0.5]];portConstraint=eastwest;" parent="102" vertex="1">
                    <mxGeometry y="678" width="590" height="20" as="geometry"/>
                </mxCell>
                <mxCell id="158" value="ERC721URIStorage" style="swimlane;fontStyle=0;align=center;verticalAlign=top;childLayout=stackLayout;horizontal=1;startSize=30;horizontalStack=0;resizeParent=1;resizeParentMax=0;resizeLast=0;collapsible=0;marginBottom=0;html=1;" vertex="1" parent="1">
                    <mxGeometry x="710" y="1200" width="590" height="110" as="geometry"/>
                </mxCell>
                <mxCell id="159" value="Function" style="text;html=1;strokeColor=none;fillColor=none;align=center;verticalAlign=middle;spacingLeft=4;spacingRight=4;overflow=hidden;rotatable=0;points=[[0,0.5],[1,0.5]];portConstraint=eastwest;" vertex="1" parent="158">
                    <mxGeometry y="30" width="590" height="20" as="geometry"/>
                </mxCell>
                <mxCell id="160" value="tokenURI(uint256 tokenId) --&amp;gt; string" style="text;html=1;strokeColor=none;fillColor=none;align=left;verticalAlign=middle;spacingLeft=4;spacingRight=4;overflow=hidden;rotatable=0;points=[[0,0.5],[1,0.5]];portConstraint=eastwest;" vertex="1" parent="158">
                    <mxGeometry y="50" width="590" height="20" as="geometry"/>
                </mxCell>
                <mxCell id="161" value="_setTokenURI(uint256 tokenId, string _tokenURI)" style="text;html=1;strokeColor=none;fillColor=none;align=left;verticalAlign=middle;spacingLeft=4;spacingRight=4;overflow=hidden;rotatable=0;points=[[0,0.5],[1,0.5]];portConstraint=eastwest;" vertex="1" parent="158">
                    <mxGeometry y="70" width="590" height="20" as="geometry"/>
                </mxCell>
                <mxCell id="162" value="_burn(tokenId)" style="text;html=1;strokeColor=none;fillColor=none;align=left;verticalAlign=middle;spacingLeft=4;spacingRight=4;overflow=hidden;rotatable=0;points=[[0,0.5],[1,0.5]];portConstraint=eastwest;" vertex="1" parent="158">
                    <mxGeometry y="90" width="590" height="20" as="geometry"/>
                </mxCell>
            </root>
        </mxGraphModel>
    </diagram>
</mxfile>